# xmcd
#
# Track frame offsets:
#	150
#	13215
#	23569
#	35951
#	44261
#	57468
#	66924
#	79190
#	91935
#	102799
#	113264
#	126000
#	139350
#	150626
#	161996
#
# Disc length: 2307 seconds
#
# Revision: 1
# Processed by: cddbd v1.5.2PL0 Copyright (c) Steve Scherf et al.
# Submitted via: audiograbber 1.83.01
#
DISCID=c709010f
DTITLE=Gene Pitney - A Street Called Hope CD1
DYEAR=1961
DGENRE=Pop
TTITLE0=Town Without Pity
TTITLE1=Louisiana Mama 
TTITLE2=Every Breath I Take
TTITLE3=(I Wanna) Love My Life Away
TTITLE4=The Man Who Shot Liberty Valance
TTITLE5=Hello Mary Lou 
TTITLE6=Half Heaven, Half Heartache
TTITLE7=Only Love Can Break A Heart
TTITLE8=True Love Never Runs Smooth
TTITLE9=Mecca
TTITLE10=That Girl Belongs To Yesterday
TTITLE11=Twenty Four Hours From Tulsa
TTITLE12=Yesterday's Hero
TTITLE13=It Hurts To Be In Love
TTITLE14=I Must Be Seeing Things
EXTD=
EXTT0=
EXTT1=
EXTT2=
EXTT3=
EXTT4=
EXTT5=
EXTT6=
EXTT7=
EXTT8=
EXTT9=
EXTT10=
EXTT11=
EXTT12=
EXTT13=
EXTT14=
PLAYORDER=
